# xmcd CD database file
#
# Track frame offsets:
#	150
#	23775
#	41812
#
# Disc length: 869 seconds
#
# Revision: 2
# Processed by: cddbd v1.5.1PL0 Copyright (c) Steve Scherf et al.
# Submitted via: CDex 1.51
#
DISCID=1e036303
DTITLE=久宝留理子 - 次の夢
DYEAR=1996
DGENRE=JPop
TTITLE0=次の夢
TTITLE1=Baby Blue
TTITLE2=次の夢-Original Backing Track-
EXTD=YEAR: 1996
EXTT0=
EXTT1=
EXTT2=
PLAYORDER=
